<?xml version="1.0" standalone="no"?>
<!DOCTYPE svg PUBLIC "-//W3C//DTD SVG 20010904//EN"
 "http://www.w3.org/TR/2001/REC-SVG-20010904/DTD/svg10.dtd">
<svg version="1.0" xmlns="http://www.w3.org/2000/svg"
 width="96.000000pt" height="96.000000pt" viewBox="0 0 96.000000 96.000000"
 preserveAspectRatio="xMidYMid meet">
<metadata>
Created by potrace 1.11, written by Peter Selinger 2001-2013
</metadata>
<g transform="translate(0.000000,96.000000) scale(0.100000,-0.100000)"
fill="#000000" stroke="none">
<path d="M0 480 l0 -480 480 0 480 0 0 480 0 480 -480 0 -480 0 0 -480z m700
284 c0 -3 -27 -50 -60 -103 -33 -54 -60 -100 -60 -102 0 -3 16 -3 35 -1 90 11
86 -77 -9 -176 -69 -73 -130 -92 -158 -50 l-15 22 -46 -27 c-49 -29 -90 -67
-151 -141 -30 -38 -44 -46 -65 -44 -46 5 -38 35 27 96 77 73 180 237 154 247
-14 6 -11 11 18 36 36 30 80 39 80 16 0 -11 -24 -54 -108 -191 -6 -11 10 -2
66 37 29 21 50 48 67 85 28 61 108 196 154 260 19 25 39 42 51 42 11 0 20 -3
20 -6z m-173 -111 c4 -11 -3 -24 -21 -40 -47 -40 -76 -12 -32 32 29 29 44 32
53 8z m190 -268 c6 -18 -23 -55 -44 -55 -20 0 -26 25 -13 49 13 25 48 28 57 6z"/>
<path d="M564 503 c-35 -7 -96 -153 -64 -153 19 0 108 91 118 120 14 40 6 45
-54 33z"/>
</g>
</svg>
